<svg xmlns="http://www.w3.org/2000/svg" viewBox="0 0 32 32"><defs><linearGradient id="a" x1="50%" x2="50%" y1="0%" y2="100%"><stop offset="0%" stop-color="#0062FE"/><stop offset="100%" stop-color="#008FFE"/></linearGradient></defs><g fill="none" fill-rule="evenodd"><rect width="32" height="32" fill="url(#a)" rx="6"/><path fill="#FFF" fill-rule="nonzero" d="M24.628 16.992a4.681 4.681 0 0 0-6.032-7.12l-.052.036a1.033 1.033 0 0 0-.24 1.444c.334.463.982.573 1.445.24l.052-.036a2.609 2.609 0 0 1 3.36 3.97l-3.632 3.639a2.609 2.609 0 0 1-3.97-3.361l.036-.052a1.035 1.035 0 0 0-1.684-1.204l-.036.052a4.68 4.68 0 0 0 7.117 6.028l3.636-3.636Zm-17.256-.984a4.681 4.681 0 0 0 6.032 7.12l.052-.036c.466-.334.573-.981.24-1.444a1.036 1.036 0 0 0-1.445-.24l-.052.036a2.606 2.606 0 0 1-3.36-.279 2.613 2.613 0 0 1 0-3.694l3.632-3.636a2.61 2.61 0 0 1 3.97 3.364l-.036.052a1.035 1.035 0 0 0 1.684 1.204l.036-.051a4.68 4.68 0 0 0-7.117-6.032l-3.636 3.636Z"/></g></svg>